<svg xmlns="http://www.w3.org/2000/svg" baseProfile="tiny" width="1366" height="242.2" overflow="visible" xmlns:v="https://vecta.io/nano"><path fill="red" d="M1154.9 160.6c24.4 23.3 54.5 25 75.1 5.4 23.2-22 25.5-68.7 4.7-93.3-19.9-23.6-48.2-23-80.2 1.8-.5-1.6-.7-3.1-1.4-4.5-1.7-3.4-3.6-6.6-5.4-9.9-1.6 3.5-4.4 6.8-4.7 10.4-.6 6.7.2 13.5.2 20.3v136.7c1.5.8 3 1.7 4.5 2.5 2.4-4.1 6.6-8.1 6.8-12.3.8-18.4.4-36.8.4-57.1zm-235.6 16.5c.9-1.2 1.9-2.4 2.8-3.7v-70.6c-.1-39.6-28.4-58.9-65.6-44.2-3.9 1.5-6.6 6.2-8.9 8.4 16.9-.5 32.2-3.5 46.1-.4 7.1 1.6 12.6 13.8 16.4 22.3.7 1.6-9 9.8-14.9 12.2-12 4.7-24.9 7.1-37.2 11.1-19.9 6.5-31.7 22.1-25.7 39.3 3.6 10.3 13.4 21.5 23.3 25.7 15.5 6.5 32.3 2.8 45.2-10.1 3.2-3.2 6-6.7 7.9-8.9l10.6 18.9zm-523.6-.5l5.5-1.3c-6.1-26.9 3.4-46.8 26.8-62.1l32.9 52.7c3.2 4.7 9.1 7.6 13.8 11.3 1.1-1.2 2.1-2.4 3.2-3.6l-44.1-69.8 38.6-43.4c-5.2-.3-9.4-1.8-10.6-.5l-61.1 66V15.3l-5.4-2.4c-2.2 3.8-6.3 7.7-6.3 11.5l.6 142.2c0 3.3 4 6.6 6.1 10zM712.5 15.7l-6.8-2.9c-1.8 4.5-5 9-5 13.5l1.2 84.6v63.7c1.7.6 3.3 1.3 5 1.9 1.9-4.4 5.5-8.8 5.5-13.2.3-22-.4-44-.4-66 0-17.4 17.6-33 37.2-33.6 19-.6 30.9 10.8 31.3 31.8.4 23.1-.5 46.3-.3 69.4 0 3.5 3.1 6.9 4.8 10.3 2-3.3 5.6-6.5 5.6-9.8.4-25.4.5-50.8-.3-76.2-.6-18.9-11-32.1-29.9-32.6-15.7-.4-31.6 5.6-48 8.9l.1-49.8zM200.7 117.5c0-36.4-24-63-56.5-62.7-32.3.3-57.5 27.9-57.5 62.7 0 35.4 24.6 61.9 57.5 62 33.6.1 56.5-25.1 56.5-62zm33.7.3c.1 35.8 24.2 61.7 57.5 61.7 33.1 0 57-26.2 56.8-62.3-.2-35.9-25-62.9-57.3-62.4-32.6.5-57.1 27.6-57 63zm419-47.2C645.9 57.3 629 52 608.1 56.3c-15.7 3.2-27.6 11.2-29.8 27.9-1.6 12.4 4.6 22.1 16.2 27 9.8 4.1 20.2 6.8 30.4 10.2 19.4 6.5 26.3 15.6 22.8 29.8-3.3 13.6-17.9 22.9-34.7 20.2-10.7-1.7-21-6.4-35.8-11.1 5 6 7.3 11.6 10.4 12.1 15.7 2.2 32 5.7 47.4 3.6 14.2-1.9 22.1-14.3 23.2-29.6 1.1-16.1-7.6-25.5-21.1-31.2-9.3-3.9-19.2-6.4-28.8-9.6-10.6-3.6-21.2-8.6-19.9-21.6 1.4-14.1 13-20.3 25.4-20 13 .2 25.8 4.2 39.6 6.6zm642.3 158.8c30.3-19.1 39.4-91 32.2-145.2-5-37.8-17-62.1-30.2-66.5 30.6 69.6 30.8 139.5-2 211.7zm-296.6-.1c-20.5-34.6-25.9-70.3-26.1-107.1-.2-37.1 6.2-73 25.9-109.1-47.8 30.1-45.4 193.3.2 216.2zM33.9 15.1v79.5 79.2c1.2 1.1 2.3 2.2 3.5 3.2 3.3-3.5 9.4-6.9 9.4-10.4l.7-142.1c.1-10.7-4.3-12.5-13.6-9.4zm1027.3 161.7c1.2-.9 2.4-1.9 3.6-2.8l.1-69.2c.2-21.8 17.3-39.4 39-41 3.5-.3 7-.8 11.8-1.3-13.3-12.2-22.5-9.5-49.5 13l-3-15.4c-5.7 1.9-9.3 5.2-9.3 8.6l.4 98.1c-.1 3.3 4.4 6.6 6.9 10z"/><path d="M1154.9 160.6c0 20.3.4 38.7-.3 57.1-.2 4.2-4.4 8.2-6.8 12.3-1.5-.8-3-1.7-4.5-2.5V90.8c0-6.8-.9-13.6-.2-20.3.3-3.6 3.1-7 4.7-10.4l5.4 9.9c.7 1.3.9 2.8 1.4 4.5 32.1-24.8 60.4-25.3 80.2-1.8 20.8 24.6 18.4 71.4-4.7 93.3-20.8 19.6-50.8 18-75.2-5.4zm-2-52c1.1 10.1 1.5 20.3 3.5 30.3 3.4 16.6 11.8 29.3 30 32.5 15.9 2.8 32.8-5 41.9-19.8 10.7-17.4 11.7-36.2 6.2-55.5-6.6-23.2-24.8-35.5-46.8-32.4-19.2 2.7-38.6 22.4-34.8 44.9zm-233.6 68.5l-10.6-18.9c-1.9 2.2-4.8 5.7-7.9 8.9-12.9 12.9-29.7 16.7-45.2 10.1-9.8-4.2-19.7-15.4-23.3-25.7-6-17.2 5.8-32.8 25.7-39.3 12.3-4 25.2-6.4 37.2-11.1 6-2.4 15.7-10.6 14.9-12.2-3.9-8.5-9.4-20.7-16.4-22.3-13.9-3.1-29.2-.1-46.1.4 2.3-2.2 5-6.9 8.9-8.4 37.2-14.6 65.5 4.6 65.6 44.2v70.6l-2.8 3.7zm-4.7-73.5l-54.7 17.1c-12.7 4.4-18.9 14-17 27.6 1.8 13.5 10.5 21.2 23.4 23 16.2 2.2 30.1-4.5 36.2-19.1 6.1-14.2 7.8-30.3 12.1-48.6zm-518.9 73c-2.1-3.3-6.1-6.7-6.1-10L389 24.4c0-3.8 4.1-7.7 6.3-11.5l5.4 2.4v110.6l61.1-66c1.2-1.3 5.3.2 10.6.5l-38.6 43.4 44.1 69.8c-1.1 1.2-2.1 2.4-3.2 3.6-4.7-3.7-10.6-6.6-13.8-11.3-11.5-17.3-22-35.1-32.9-52.7-23.4 15.3-32.9 35.2-26.8 62.1-1.9.4-3.7.8-5.5 1.3zM712.5 15.7v49.8c16.4-3.3 32.3-9.3 48-8.9 18.9.5 29.3 13.7 29.9 32.6.8 25.4.6 50.8.3 76.2 0 3.3-3.6 6.5-5.6 9.8-1.7-3.4-4.8-6.9-4.8-10.3l.3-69.4c-.4-20.9-12.3-32.4-31.3-31.8-19.7.7-37.2 16.3-37.3 33.7l.4 66c-.1 4.4-3.6 8.8-5.5 13.2-1.7-.6-3.3-1.3-5-1.9V111l-1.2-84.6c0-4.5 3.3-9 5-13.5 2.3.9 4.6 1.9 6.8 2.8zM200.7 117.5c0 37-22.9 62.2-56.5 62.1-33-.1-57.5-26.6-57.5-62 0-34.9 25.3-62.4 57.5-62.7 32.5-.4 56.4 26.1 56.5 62.6zM96.1 117c3.4 11.3 5.3 22.6 10.2 32.3 8.1 15.9 22.7 23.2 40.4 22.4 17.9-.8 30.8-10 37.6-26.7 7.8-19.2 7.6-38.6-1.2-57.3-7.3-15.5-20-24-37.4-24.4-17.2-.4-31.3 6.2-39.1 21.5-5 9.8-7 21.1-10.5 32.2zm138.3.8c-.1-35.4 24.4-62.5 56.9-63 32.3-.5 57.1 26.5 57.3 62.4.2 36.1-23.6 62.3-56.8 62.3s-57.3-25.9-57.4-61.7zm102.4-.2c0-38.7-26.1-62.2-58.1-52.4-20.5 6.2-32.8 25.4-33.3 51.5-.4 25.3 12 45.8 31.8 52.6 32.7 11.1 59.6-12.2 59.6-51.7zm316.6-47c-13.7-2.5-26.6-6.4-39.6-6.6-12.4-.2-24 5.9-25.4 20-1.3 13.1 9.3 18.1 19.9 21.6 9.6 3.2 19.5 5.7 28.8 9.6 13.5 5.7 22.2 15.1 21.1 31.2-1.1 15.3-9 27.7-23.2 29.6-15.4 2.1-31.7-1.4-47.4-3.6-3.1-.4-5.5-6.1-10.4-12.1 14.8 4.7 25 9.3 35.8 11.1 16.8 2.7 31.3-6.6 34.7-20.2 3.5-14.2-3.4-23.2-22.8-29.8-10.1-3.4-20.6-6.1-30.4-10.2-11.6-4.9-17.8-14.6-16.2-27 2.2-16.8 14.1-24.7 29.8-27.9 20.9-4.3 37.8 1 45.3 14.3z"/><path d="M1295.7 229.4c32.9-72.2 32.6-142.1 2-211.7 13.2 4.4 25.2 28.7 30.2 66.5 7.2 54.2-2 126-32.2 145.2zm-296.6-.1c-45.6-22.8-48-186.1-.2-216.2C979.1 49.2 972.7 85 973 122.2c.2 36.7 5.6 72.5 26.1 107.1z" fill="red"/><path d="M33.9 15.1c9.3-3 13.7-1.3 13.6 9.5l-.7 142.1c-.1 3.5-6.2 6.9-9.4 10.4-1.2-1.1-2.3-2.2-3.5-3.2V94.7 15.1zm1027.3 161.7c-2.5-3.4-7-6.7-7.1-10.1l-.4-98.1c0-3.3 3.6-6.6 9.3-8.6l3 15.4c27.1-22.5 36.2-25.2 49.5-13-4.8.5-8.3 1.1-11.8 1.3-21.8 1.6-38.8 19.2-39 41l-.1 69.2c-1 1-2.2 1.9-3.4 2.9z"/><path d="M1152.9 108.6c-3.8-22.5 15.6-42.2 34.8-45 22-3.1 40.2 9.2 46.8 32.4 5.5 19.3 4.5 38.1-6.2 55.5-9.1 14.9-26 22.6-41.9 19.8-18.2-3.2-26.7-15.9-30-32.5-2-9.8-2.4-20.1-3.5-30.2zm-238.3-5c-4.3 18.3-6.1 34.4-12.1 48.7-6.1 14.6-20 21.3-36.2 19.1-13-1.8-21.6-9.5-23.4-23-1.8-13.6 4.3-23.2 17-27.6 16.3-5.8 33-10.5 54.7-17.2zM96.1 117c3.5-11.2 5.5-22.5 10.5-32.2 7.9-15.3 22-21.9 39.1-21.5 17.4.4 30.2 8.8 37.4 24.4 8.7 18.7 9 38.2 1.2 57.3-6.8 16.7-19.7 25.9-37.6 26.7-17.7.8-32.3-6.5-40.4-22.4-5-9.7-6.8-21-10.2-32.3zm240.7.6c0 39.6-26.9 62.9-59.6 51.7-19.8-6.8-32.2-27.3-31.8-52.6.5-26.1 12.9-45.3 33.3-51.5 32-9.8 58 13.7 58.1 52.4z" fill="#fff"/></svg>